<?xml version="1.0" encoding="utf-8"?>
<!-- Generator: Adobe Illustrator 25.2.1, SVG Export Plug-In . SVG Version: 6.00 Build 0)  -->
<svg version="1.1" id="Layer_1" xmlns="http://www.w3.org/2000/svg" xmlns:xlink="http://www.w3.org/1999/xlink" x="0px" y="0px"
	 viewBox="0 0 500 105" style="enable-background:new 0 0 500 105;" xml:space="preserve">
<g>
	<g>
		<path d="M84.63,101.68c-0.25-0.42-0.49-0.82-0.75-1.21c-1.09-1.71-2.28-3.35-3.53-4.95c-2.66-3.4-5.56-6.63-8.58-9.71
			c-6.21-6.36-12.92-12.25-20.09-17.47c-2.43-1.78-4.92-3.51-7.45-5.15c-1.22-0.78-2.45-1.54-3.72-2.24
			c-0.57-0.31-1.14-0.6-1.74-0.83c-0.42-0.16-1.06-0.45-1.51-0.26c-0.31,0.15-0.6,0.38-0.9,0.54c-0.44,0.23-0.9,0.42-1.38,0.59
			c-0.99,0.36-2.02,0.6-3.05,0.79c-2.1,0.39-4.25,0.54-6.39,0.61c-1.93,0.06-3.85,0.04-5.77-0.17c-1.02-0.12-2.05-0.28-3.07-0.48
			c-0.42-0.08-0.84-0.18-1.25-0.28c-0.35-0.09-0.77-0.17-1.09-0.36c-0.22-0.13,0.31-0.11,0.35-0.1h0.07h0.08l0.08,0.01
			c4.07,0.36,8.12,0.38,12.18-0.23c1.06-0.17,2.12-0.36,3.16-0.59c0.93-0.21,1.86-0.45,2.73-0.87c1.41-0.69,2.59-1.78,3.41-3.13
			c1.59-2.64,1.83-5.95,1.55-8.96c-0.14-1.48-0.4-2.94-0.81-4.37c-0.19-0.67-0.41-1.34-0.7-1.97c-0.09-0.19-0.32-0.8-0.59-0.81
			l-0.04,0.01l-0.04,0.03l-0.04,0.05c-0.41,0.72-0.64,1.55-0.99,2.3c-0.42,0.9-0.9,1.76-1.47,2.58c-1.1,1.58-2.55,2.9-4.3,3.71
			c-1.64,0.76-3.42,0.99-5.2,0.92c-1.99-0.09-4,0.12-5.88,0.82c-0.7,0.26-1.39,0.6-2.03,1.02c-0.32,0.21-0.63,0.44-0.92,0.69
			c-0.14,0.12-0.27,0.24-0.41,0.37c-0.04,0.05-0.2,0.26-0.27,0.25l-0.01-0.02c0.21-0.76,0.87-1.36,1.47-1.81
			c0.77-0.58,1.65-1.03,2.55-1.38c0.94-0.37,1.92-0.64,2.91-0.82c1.05-0.19,2.09-0.24,3.15-0.33c1.87-0.17,3.71-0.74,5.18-1.97
			c1.53-1.29,2.59-3.13,3.53-4.89c0.91-1.71,1.46-3.63,1.99-5.49c0.61-2.12,1.14-4.26,1.64-6.41c0.45-1.89,0.86-3.8,1.27-5.7
			c0.31-1.44,0.74-2.98,0.52-4.47c-0.1-0.66-0.65-1.26-1.25-1.61c-0.77-0.44-1.73-0.56-2.23-0.62c-8.43-0.81-5.27-3.34-6.87-4.96
			c-1.67-1.69-0.12-2.23-2.1-4.25c-1.91-1.94-0.15-4.42-3.09-7.16c-1.25-1.16-2.72-1.59-4.11-1.65c-2.52-0.12-4.75,0.95-4.75,0.95
			l-1.87,0.87c-1.86,0.86-2.05,3.08-1.85,4.32c0.2,1.24,0.58,3.4,0.53,4.71c-0.05,1.31-0.59,1.7,0.56,2.12
			c1.14,0.41,0.96,1.3,1.18,2.01c0.22,0.72,0.33,0.4,0.58,1.43c0.07,0.26,0.49,0.55,0.77,0.5c0.68-0.09,1.95-0.67,1.95-0.67
			c0.08-0.03,0.18-0.04,0.27-0.04c0.08,0,0.15,0.01,0.21,0.04l0.04,0.02c1.03,0.38,1.72,2.56-0.86,3.07
			c-1.59,0.39-3.31,1.02-4.21,2.5c-0.94,1.57-0.89,3.63-1.02,5.42c-0.14,1.96-0.38,3.93-0.61,5.89c-0.5,4.39-1.04,8.79-1.78,13.15
			c-0.17,1-0.35,1.98-0.56,2.96c-0.06,0.29-0.08,0.94-0.31,1.12c-0.39,0.31-0.77,0.65-1.14,0.99c-0.76,0.68-1.5,1.38-2.25,2.06
			c-0.67,0.59-1.34,1.19-1.95,1.85c-0.62,0.68-1.1,1.41-1.29,2.32c-0.2,0.96-0.34,1.96-0.41,2.94c-0.14,2.13,0.14,4.34,0.95,6.32
			C2.4,69.61,5.43,71.92,9,72.85c0.92,0.24,1.86,0.4,2.81,0.49h0.03l0.03,0.01l0.04,0.01c1.88,0.21,3.76,0.3,5.65,0.22
			c1.98-0.08,3.96-0.07,5.94-0.05c2.05,0.02,4.11,0.04,6.16,0.21c1.92,0.15,3.84,0.55,5.7,1c7.8,1.9,15.07,5.75,21.29,10.85
			c1.99,1.63,3.88,3.4,5.63,5.29c0.55,0.6,1.07,1.23,1.61,1.84c0.36,0.42,0.78,0.8,1.19,1.16c0.47,0.43,1.11,1.09,1.77,1.19h0.08
			h0.07l0.06-0.02c0.48-0.24,0.3-1.09,0.21-1.49c-0.16-0.76-0.46-1.48-0.77-2.18c-0.28-0.66-0.6-1.29-0.94-1.93
			c-0.22-0.41-0.78-1.05-0.28-1.44l0.08-0.04c0.32-0.14,0.73,0.09,1,0.25c0.32,0.18,0.63,0.4,0.93,0.61
			c0.72,0.51,1.42,1.05,2.11,1.61c1.66,1.32,3.27,2.69,4.88,4.06c2.94,2.54,5.87,5.11,8.75,7.71c0.34,0.31,1.48,1.37,1.87,0.62
			C85.09,102.45,84.82,102,84.63,101.68 M13.96,39.17c0.1-1.04,0.2-2.08,0.3-3.13c0.05-0.39,0.09-0.79,0.15-1.18
			c0.04-0.28,0.05-0.79,0.24-1c0.22-0.26,0.83,0.3,0.98,0.44c0.35,0.34,0.56,0.76,0.74,1.21c0.34,0.91,0.59,1.84,0.65,2.81
			c0.07,0.95,0,1.9-0.12,2.83c-0.07,0.48-0.15,0.97-0.25,1.46c-0.03,0.18-0.03,0.24-0.16,0.35c-0.18,0.13-0.36,0.27-0.54,0.41
			c-0.88,0.66-1.75,1.39-2.7,1.95C13.6,43.31,13.76,41.23,13.96,39.17"/>
	</g>
	<g>
		<path d="M69.97,17.48c-0.42,0-0.74,0.12-0.94,0.36c-0.13,0.16-0.27,0.45-0.17,0.92l9.88,48.29c0.19,0.95,0.82,1.1,1.18,1.1h5.63
			c0.36,0,0.99-0.15,1.18-1.1l9.88-48.3c0.09-0.46-0.05-0.75-0.18-0.91c-0.2-0.24-0.51-0.36-0.93-0.36h-6.15
			c-0.72,0-1.19,0.41-1.26,1.1l-5.23,31.95l-5.43-31.89c-0.07-0.73-0.51-1.15-1.19-1.15H69.97z"/>
	</g>
	<g>
		<path d="M102.55,17.48c-0.75,0-1.19,0.44-1.19,1.18v48.3c0,0.75,0.45,1.19,1.19,1.19h6.37c0.74,0,1.19-0.44,1.19-1.19v-48.3
			c0-0.74-0.45-1.18-1.19-1.18H102.55z"/>
	</g>
	<g>
		<path d="M148.39,17.48c-0.74,0-1.19,0.44-1.19,1.18v48.3c0,0.75,0.45,1.19,1.19,1.19h6.37c0.74,0,1.19-0.44,1.19-1.19v-48.3
			c0-0.74-0.45-1.18-1.19-1.18H148.39z"/>
	</g>
	<g>
		<path d="M160.36,17.48c-0.75,0-1.19,0.44-1.19,1.18v5.64c0,0.75,0.44,1.19,1.19,1.19h7.59v41.48c0,0.75,0.44,1.19,1.19,1.19h6.36
			c0.75,0,1.19-0.44,1.19-1.19V25.49h7.59c0.75,0,1.19-0.44,1.19-1.19v-5.64c0-0.74-0.44-1.18-1.19-1.18H160.36z"/>
	</g>
	<g>
		<path d="M232.82,16.83c-3.15,0-5.78,0.7-7.83,2.09c-2.06,1.4-3.53,3.4-4.38,5.96c-0.21,0.57-0.37,1.18-0.49,1.83
			c-0.13,0.66-0.23,1.59-0.3,2.84c-0.08,1.23-0.12,2.9-0.15,4.96c-0.02,2.01-0.03,4.73-0.03,8.3c0,3.58,0.01,6.3,0.03,8.31
			c0.03,2.07,0.08,3.73,0.15,4.96c0.07,1.25,0.17,2.18,0.3,2.84c0.12,0.66,0.29,1.26,0.49,1.81c0.86,2.58,2.34,4.58,4.39,5.98
			c2.04,1.39,4.67,2.09,7.83,2.09c3.16,0,5.78-0.71,7.8-2.09c2.03-1.4,3.48-3.4,4.34-5.96c0.21-0.56,0.37-1.17,0.49-1.83
			c0.13-0.66,0.23-1.61,0.3-2.84c0.08-1.22,0.12-2.84,0.15-4.96c0.03-2.09,0.04-4.88,0.04-8.31c0-3.42-0.01-6.22-0.04-8.3
			c-0.02-2.12-0.07-3.74-0.15-4.96c-0.07-1.23-0.17-2.19-0.3-2.84c-0.12-0.65-0.29-1.26-0.49-1.81c-0.86-2.58-2.32-4.59-4.35-5.98
			C238.6,17.53,235.98,16.83,232.82,16.83z M232.82,60.8c-0.97,0-1.81-0.23-2.48-0.69c-0.67-0.45-1.1-1.03-1.32-1.75
			c-0.09-0.33-0.17-0.69-0.24-1.06c-0.05-0.25-0.12-0.82-0.18-2.06c-0.05-1-0.07-2.48-0.07-4.4V34.81c0-1.92,0.02-3.4,0.07-4.4
			c0.05-1.24,0.13-1.81,0.18-2.06c0.07-0.38,0.15-0.74,0.24-1.06c0.21-0.73,0.64-1.31,1.32-1.77c0.68-0.46,1.51-0.69,2.48-0.69
			c0.94,0,1.73,0.23,2.42,0.69c0.67,0.45,1.1,1.03,1.31,1.75c0.1,0.34,0.18,0.7,0.25,1.07c0.07,0.36,0.11,1.05,0.13,2.05
			c0.03,1.02,0.05,2.5,0.08,4.42c0.02,1.95,0.04,4.64,0.04,8c0,3.36-0.01,6.05-0.04,8.01c-0.03,1.92-0.05,3.4-0.08,4.42
			c-0.02,1-0.07,1.69-0.13,2.05c-0.07,0.37-0.15,0.72-0.24,1.05c-0.22,0.73-0.65,1.31-1.32,1.76
			C234.55,60.57,233.76,60.8,232.82,60.8z"/>
	</g>
	<g>
		<path d="M253.44,17.49c-0.75,0-1.19,0.44-1.19,1.19v48.29c0,0.75,0.45,1.19,1.19,1.19h6.36c0.75,0,1.19-0.44,1.19-1.19V50.37h2.47
			c4.54,0,8.14-1.22,10.71-3.64c2.46-2.32,3.87-6.99,3.87-12.8c0-3.09-0.37-6.16-0.97-8.01c-0.66-2.01-1.63-3.66-2.9-4.91
			c-1.26-1.24-2.83-2.15-4.65-2.7c-1.79-0.55-3.83-0.82-6.06-0.82H253.44z M263.47,42.36H261V25.5h2.47c2.09,0,3.6,0.54,4.48,1.59
			c0.85,1.02,1.36,3.58,1.36,6.85c0,1.43-0.11,3.45-0.36,4.49c-0.23,0.98-0.58,1.77-1.04,2.34c-0.46,0.57-1.02,0.97-1.73,1.21
			C265.44,42.23,264.53,42.36,263.47,42.36z"/>
	</g>
	<g>
		<path d="M284.89,17.49c-0.74,0-1.19,0.44-1.19,1.19v48.29c0,0.75,0.44,1.19,1.19,1.19h20.42c0.75,0,1.19-0.44,1.19-1.19v-5.64
			c0-0.74-0.44-1.19-1.19-1.19h-12.86l0-13.57h10.04c0.75,0,1.19-0.44,1.19-1.19v-5.64c0-0.74-0.45-1.19-1.19-1.19h-10.04l0-13.06
			h12.86c0.75,0,1.19-0.44,1.19-1.19v-5.63c0-0.74-0.44-1.19-1.19-1.19H284.89z"/>
	</g>
	<g>
		<path d="M320.78,34.36l9.38,32.74c0.21,0.68,0.71,1.05,1.46,1.05h7.07c0.75,0,1.19-0.44,1.19-1.19V18.67
			c0-0.74-0.44-1.19-1.19-1.19h-5.42c-0.74,0-1.18,0.44-1.18,1.19v32.25l-8.87-32.39c-0.2-0.67-0.73-1.06-1.46-1.06h-7.58
			c-0.75,0-1.19,0.44-1.19,1.19v48.29c0,0.75,0.44,1.19,1.19,1.19h5.42c0.74,0,1.18-0.44,1.18-1.19V34.36z"/>
	</g>
	<g>
		<path d="M480.91,34.36l9.38,32.74c0.21,0.68,0.71,1.05,1.46,1.05h7.07c0.75,0,1.19-0.44,1.19-1.19V18.67
			c0-0.74-0.45-1.19-1.19-1.19h-5.42c-0.75,0-1.19,0.44-1.19,1.19v32.25l-8.87-32.39c-0.21-0.67-0.74-1.06-1.46-1.06h-7.58
			c-0.74,0-1.19,0.44-1.19,1.19v48.29c0,0.75,0.45,1.19,1.19,1.19h5.42c0.75,0,1.19-0.44,1.19-1.19V34.36z"/>
	</g>
	<g>
		<path d="M356.7,47.14h8.38v19.82c0,0.75,0.45,1.19,1.19,1.19h6.36c0.75,0,1.19-0.44,1.19-1.19V18.67c0-0.74-0.45-1.19-1.19-1.19
			h-6.36c-0.75,0-1.19,0.44-1.19,1.19v20.45h-8.38V18.67c0-0.74-0.44-1.19-1.19-1.19h-6.36c-0.75,0-1.19,0.44-1.19,1.19v48.29
			c0,0.75,0.44,1.19,1.19,1.19h6.36c0.75,0,1.19-0.44,1.19-1.19L356.7,47.14z"/>
	</g>
	<g>
		<path d="M446.07,17.49c-0.74,0-1.19,0.44-1.19,1.19v48.29c0,0.75,0.45,1.19,1.19,1.19h20.42c0.75,0,1.19-0.44,1.19-1.19v-5.64
			c0-0.74-0.44-1.19-1.19-1.19h-12.86V46.57h10.04c0.75,0,1.19-0.44,1.19-1.19v-5.64c0-0.74-0.45-1.19-1.19-1.19h-10.04V25.5h12.86
			c0.75,0,1.19-0.44,1.19-1.19v-5.63c0-0.74-0.44-1.19-1.19-1.19H446.07z"/>
	</g>
	<g>
		<path d="M202.58,16.83c-3.16,0-5.72,0.71-7.62,2.1c-1.9,1.39-3.27,3.37-4.08,5.85c-0.15,0.55-0.29,1.15-0.41,1.78
			c-0.13,0.66-0.22,1.6-0.3,2.88c-0.07,1.26-0.14,2.95-0.18,5.03c-0.05,2.06-0.07,4.86-0.07,8.34c0,3.48,0.03,6.29,0.07,8.35
			c0.05,2.08,0.11,3.77,0.18,5.03c0.08,1.28,0.17,2.23,0.3,2.91c0.12,0.66,0.26,1.26,0.42,1.78c0.8,2.47,2.18,4.43,4.07,5.82
			c1.9,1.39,4.47,2.1,7.62,2.1c3.66,0,6.62-1,8.8-2.97c2.17-1.97,3.4-5.12,3.66-9.35c0.02-0.59,0.02-0.82-0.16-0.98
			c-0.13-0.12-0.39-0.29-0.8-0.26h-6.12l0,0c-0.67,0-0.93,0.34-1.02,0.48c-0.07,0.12-0.11,0.25-0.13,0.38
			c-0.16,1.55-0.53,2.71-1.12,3.44c-0.66,0.85-1.62,1.26-2.9,1.26c-1.01,0-1.79-0.2-2.32-0.6c-0.53-0.4-0.93-1.03-1.2-1.87
			c-0.09-0.26-0.16-0.59-0.24-0.99c-0.07-0.39-0.12-1.1-0.14-2.09c-0.03-1.02-0.05-2.48-0.08-4.46c-0.02-1.92-0.03-4.53-0.03-7.97
			c0-3.44,0.01-6.05,0.03-7.97c0.03-1.98,0.05-3.44,0.08-4.46c0.02-0.99,0.07-1.7,0.14-2.09c0.07-0.4,0.15-0.73,0.24-1
			c0.26-0.83,0.66-1.45,1.19-1.86c0.53-0.4,1.31-0.6,2.32-0.6c1.28,0,2.23,0.42,2.9,1.26c0.58,0.73,0.96,1.89,1.12,3.44
			c0.02,0.12,0.06,0.26,0.13,0.37c0.09,0.15,0.36,0.49,1,0.49l6.13,0c0.04,0,0.07,0,0.1,0c0.36,0,0.59-0.14,0.71-0.26
			c0.17-0.16,0.18-0.39,0.16-0.98c-0.26-4.24-1.49-7.38-3.66-9.35C209.21,17.83,206.25,16.83,202.58,16.83z"/>
	</g>
	<g>
		<path d="M116.91,54.24l-0.09,0.01c-0.56,0-1.14,0.29-1.14,1.09c0.2,8.94,4.54,13.47,12.9,13.47c2.38,0,4.44-0.33,6.13-0.98
			c1.7-0.66,3.09-1.66,4.14-2.96c1.04-1.3,1.8-2.93,2.25-4.87c0.44-1.9,0.67-4.12,0.67-6.58c0-2.05-0.16-3.77-0.52-5.41
			c-0.36-1.61-0.92-3.01-1.67-4.18c-0.76-1.16-1.75-2.18-2.94-3.01c-1.17-0.82-2.6-1.57-4.23-2.21l-2.99-1.17
			c-0.94-0.38-1.73-0.76-2.35-1.13c-0.57-0.35-1.03-0.79-1.36-1.29c-0.33-0.5-0.55-1.12-0.66-1.83c-0.11-0.72-0.18-1.83-0.18-3.03
			c0-4.97,2.33-5.55,4.08-5.55c1.46,0,2.47,0.47,3.09,1.44c0.55,0.85,0.91,2.05,1.06,3.55c0.02,0.21,0.07,0.35,0.14,0.46
			c0.1,0.15,0.31,0.35,0.7,0.41c0.08,0.01,0.17,0.01,0.25,0.01h0.06l5.75,0l0.09-0.01c0.8-0.14,1.14-0.46,1.14-1.09
			c-0.28-4.41-1.18-7.1-3.13-9.27c-1.96-2.19-5.12-3.3-9.38-3.3c-4.27,0-7.46,1.2-9.5,3.56c-2.01,2.34-3.03,5.76-3.03,10.14
			c0,2.04,0.16,3.94,0.45,5.36c0.3,1.49,0.81,2.82,1.52,3.96c0.71,1.14,1.68,2.16,2.86,3.02c1.17,0.85,2.65,1.63,4.39,2.32
			l2.99,1.17c0.94,0.38,1.72,0.78,2.33,1.2c0.57,0.4,1.03,0.9,1.36,1.49c0.34,0.61,0.58,1.36,0.71,2.23
			c0.15,0.95,0.22,1.89,0.22,3.12c0,2.62-0.36,4.4-1.08,5.31c-0.69,0.9-1.73,1.33-3.15,1.33c-1.56,0-2.68-0.49-3.39-1.5
			c-0.9-1.15-1.45-3.03-1.6-4.4c-0.02-0.2-0.06-0.34-0.14-0.46c-0.1-0.15-0.31-0.35-0.7-0.41c-0.08-0.01-0.17-0.02-0.26-0.02h-0.05
			H116.91z"/>
	</g>
	<g>
		<path d="M425.15,16.83c-3.16,0-5.79,0.7-7.83,2.09c-2.06,1.4-3.53,3.4-4.38,5.96c-0.2,0.57-0.37,1.18-0.49,1.83
			c-0.13,0.66-0.23,1.59-0.3,2.84c-0.07,1.23-0.12,2.9-0.15,4.96c-0.03,2.02-0.04,4.73-0.04,8.3c0,3.57,0.02,6.29,0.04,8.31
			c0.02,2.07,0.08,3.74,0.15,4.96c0.08,1.26,0.17,2.18,0.3,2.84c0.12,0.66,0.29,1.27,0.49,1.81c0.86,2.58,2.33,4.58,4.38,5.98
			c2.05,1.39,4.68,2.09,7.83,2.09c3.15,0,5.77-0.71,7.79-2.09c2.03-1.4,3.49-3.4,4.34-5.96c0.21-0.56,0.37-1.17,0.5-1.83
			c0.13-0.66,0.22-1.61,0.3-2.84c0.08-1.22,0.12-2.83,0.15-4.93c0.02-2.12,0.04-3.49,0.04-6.88v-2.19c0-0.75-0.45-1.19-1.19-1.19
			h-10.41c-0.75,0-1.19,0.44-1.19,1.19v5.41c0,0.74,0.45,1.19,1.2,1.19h3.22v0.15c0,1.94-0.01,2.46-0.03,3.48l-0.01,0.4
			c-0.02,1.34-0.04,2.38-0.07,3.14c-0.03,0.91-0.09,1.35-0.14,1.57c-0.07,0.33-0.15,0.63-0.25,0.92c-0.21,0.72-0.68,1.29-1.42,1.75
			c-0.76,0.47-1.65,0.7-2.64,0.7c-0.94,0-1.8-0.24-2.56-0.7c-0.75-0.46-1.21-1.02-1.42-1.74c-0.09-0.35-0.18-0.7-0.25-1.06
			c-0.05-0.25-0.12-0.82-0.18-2.06c-0.05-0.99-0.07-2.47-0.07-4.4V34.81c0-1.92,0.02-3.41,0.07-4.4c0.05-1,0.11-1.69,0.18-2.06
			c0.07-0.36,0.15-0.72,0.25-1.05c0.21-0.73,0.66-1.31,1.36-1.76c0.71-0.46,1.57-0.7,2.55-0.7c2.42,0,3.87,1.44,4.41,4.4
			c0.02,0.1,0.09,0.31,0.13,0.38c0.09,0.15,0.35,0.49,1,0.49h6.2c0.04,0,0.07,0,0.1,0c0.36,0,0.58-0.14,0.7-0.26
			c0.18-0.17,0.19-0.39,0.16-0.99c-0.4-4.04-1.72-7.09-3.92-9.06C431.85,17.83,428.86,16.83,425.15,16.83z"/>
	</g>
	<g>
		<path d="M388.64,59.76h10.15l1.38,7.3c0.14,0.71,0.59,1.1,1.25,1.1h6.22c0.48,0,0.73-0.19,0.86-0.35c0.2-0.23,0.25-0.54,0.17-0.94
			l-10.54-48.28c-0.14-0.71-0.59-1.1-1.25-1.1h-6.15c-0.42,0-0.98,0.19-1.26,1.1l-10.75,48.29c-0.08,0.38-0.02,0.69,0.17,0.93
			c0.13,0.16,0.38,0.35,0.86,0.35h6.22c0.67,0,1.11-0.39,1.25-1.1L388.64,59.76z M397.38,52.26h-7.29l3.69-19.11L397.38,52.26z"/>
	</g>
</g>
</svg>
